<?xml version="1.0" encoding="UTF-8"?>
<!DOCTYPE svg PUBLIC "-//W3C//DTD SVG 1.1//EN" "http://www.w3.org/Graphics/SVG/1.1/DTD/svg11.dtd">
<svg xmlns="http://www.w3.org/2000/svg" version="1.1" width="144px" height="144px" style="shape-rendering:geometricPrecision; text-rendering:geometricPrecision; image-rendering:optimizeQuality; fill-rule:evenodd; clip-rule:evenodd" xmlns:xlink="http://www.w3.org/1999/xlink">
<g><path style="opacity:1" fill="#231f21" d="M -0.5,-0.5 C 47.5,-0.5 95.5,-0.5 143.5,-0.5C 143.5,47.5 143.5,95.5 143.5,143.5C 95.5,143.5 47.5,143.5 -0.5,143.5C -0.5,95.5 -0.5,47.5 -0.5,-0.5 Z"/></g>
<g><path style="opacity:1" fill="#fafafa" d="M 51.5,110.5 C 49.8333,110.5 48.1667,110.5 46.5,110.5C 44.5,109.833 42.5,109.167 40.5,108.5C 39.9744,106.77 38.9744,105.436 37.5,104.5C 37.1667,103.833 36.8333,103.167 36.5,102.5C 33.7549,98.963 30.0882,97.2964 25.5,97.5C 26.3163,100.107 27.9829,102.107 30.5,103.5C 33.1272,106.864 35.2938,110.531 37,114.5C 42.5416,118.184 48.7083,119.518 55.5,118.5C 55.6657,122.846 55.499,127.179 55,131.5C 49.8029,132.446 44.9696,131.28 40.5,128C 17.0562,112.944 6.55616,91.4438 9,63.5C 16.451,30.9494 36.7843,13.2827 70,10.5C 102.663,11.8285 123.663,28.1618 133,59.5C 137.729,92.5482 125.229,116.382 95.5,131C 92.9234,132.25 90.2567,132.584 87.5,132C 86.6814,123.245 86.1814,114.411 86,105.5C 85.3645,104.034 84.5312,102.7 83.5,101.5C 104.729,97.7479 113.896,85.0812 111,63.5C 109.363,59.7075 107.53,56.0409 105.5,52.5C 106.927,47.4416 106.76,42.4416 105,37.5C 102.936,36.4086 100.769,36.2419 98.5,37C 94.2319,38.72 90.0653,40.5533 86,42.5C 76.3268,39.8836 66.6602,39.8836 57,42.5C 52.4554,40.8122 47.9554,38.9789 43.5,37C 37.967,36.1375 35.6337,38.6375 36.5,44.5C 37.0081,47.8491 37.1747,51.1825 37,54.5C 34.5584,57.0482 32.8917,60.0482 32,63.5C 28.7358,85.3402 37.9024,98.0069 59.5,101.5C 57.0136,103.578 56.0136,106.245 56.5,109.5C 54.7839,109.629 53.1172,109.962 51.5,110.5 Z"/></g>
<g><path style="opacity:1" fill="#464243" d="M 36.5,102.5 C 34.5471,103.999 32.8804,103.665 31.5,101.5C 30.7025,101.957 30.3691,102.624 30.5,103.5C 27.9829,102.107 26.3163,100.107 25.5,97.5C 30.0882,97.2964 33.7549,98.963 36.5,102.5 Z"/></g>
<g><path style="opacity:1" fill="#9b9999" d="M 37.5,104.5 C 37.6713,107.797 37.0046,108.131 35.5,105.5C 35.9569,104.702 36.6236,104.369 37.5,104.5 Z"/></g>
<g><path style="opacity:1" fill="#cdcccd" d="M 40.5,108.5 C 40.3605,110.337 39.6939,110.67 38.5,109.5C 38.9569,108.702 39.6236,108.369 40.5,108.5 Z"/></g>
<g><path style="opacity:1" fill="#868485" d="M 46.5,110.5 C 48.1667,110.5 49.8333,110.5 51.5,110.5C 50.0915,114.169 48.4249,114.169 46.5,110.5 Z"/></g>
<g><path style="opacity:1" fill="#9d9c9c" d="M 42.5,112.5 C 43.3864,111.224 44.3864,111.224 45.5,112.5C 44.5754,113.562 43.5754,113.562 42.5,112.5 Z"/></g>
<g><path style="opacity:1" fill="#9c9b9b" d="M 52.5,111.5 C 55.7973,111.329 56.1306,111.995 53.5,113.5C 52.7025,113.043 52.3691,112.376 52.5,111.5 Z"/></g>
</svg>
